<svg width="82" height="124" viewBox="0 0 82 124" fill="none" xmlns="http://www.w3.org/2000/svg">
<g clip-path="url(#clip0_400_849)">
<path fill-rule="evenodd" clip-rule="evenodd" d="M72.0297 1.55C65.2297 3.55 65.2297 3.55 67.3297 5.65C68.9297 7.25 67.3297 9.05 39.0297 37.35L8.92969 67.45L11.1297 69.75L13.3297 72.05L43.5297 41.85C69.7297 15.65 73.8297 11.95 74.9297 13.25C75.7297 14.15 76.5297 14.85 76.9297 14.85C77.6297 14.85 81.0297 3.15 81.0297 0.950001C81.0297 -0.449999 78.7297 -0.349999 72.0297 1.55Z" fill="white"/>
<path fill-rule="evenodd" clip-rule="evenodd" d="M29.0304 3.35005C17.9304 6.55005 8.23044 14.5501 3.33044 24.8501C-0.269557 32.2501 -1.06956 45.9501 1.53044 54.3501L3.33044 60.0501L19.1304 44.2501C34.6304 28.8501 35.0304 28.5501 36.9304 30.2501C38.8304 32.0501 38.9304 31.9501 40.0304 27.6501C40.6304 25.3501 41.6304 21.8501 42.2304 20.0501C42.7304 18.2501 43.0304 16.5501 42.8304 16.3501C42.6304 16.0501 38.9304 16.8501 34.6304 18.0501C27.1304 20.0501 27.0304 20.1501 28.7304 22.0501C30.3304 23.8501 30.0304 24.3501 19.0304 35.3501C12.7304 41.6501 7.23044 46.8501 6.83044 46.8501C6.33044 46.8501 6.03044 44.3501 6.03044 41.3501C6.03044 29.7501 13.7304 17.6501 24.5304 12.0501C31.2304 8.65005 42.5304 7.85005 49.9304 10.3501C54.9304 11.9501 55.2304 11.9501 57.1304 10.2501C58.1304 9.35005 59.0304 8.15005 59.0304 7.75005C59.0304 7.35005 56.4304 6.05005 53.3304 4.85005C45.7304 2.05005 36.0304 1.45005 29.0304 3.35005Z" fill="white"/>
<path fill-rule="evenodd" clip-rule="evenodd" d="M70.5297 23.8501C68.8297 25.7501 68.8297 26.0501 70.5297 31.4501C75.5297 47.4501 67.6297 65.2501 52.5297 71.9501C47.3297 74.2501 34.0297 75.8501 34.0297 74.1501C34.0297 73.6501 35.7297 71.5501 37.8297 69.5501C41.2297 66.2501 41.8297 65.9501 43.0297 67.3501C43.7297 68.1501 44.5297 68.8501 44.9297 68.8501C45.6297 68.8501 49.0297 57.0501 49.0297 54.5501C49.0297 53.3501 47.8297 53.4501 41.8297 55.1501C37.8297 56.1501 34.3297 57.2501 34.1297 57.4501C33.8297 57.7501 34.4297 58.6501 35.3297 59.5501C36.9297 61.1501 36.5297 61.7501 28.9297 69.4501L20.9297 77.5501L26.1297 79.1501C33.2297 81.4501 45.6297 81.3501 52.5297 78.9501C63.3297 75.1501 72.5297 65.9501 76.6297 54.8501C79.2297 48.0501 78.9297 34.8501 76.1297 27.5501C74.9297 24.4501 73.5297 21.8501 73.1297 21.8501C72.7297 21.8501 71.5297 22.7501 70.5297 23.8501Z" fill="white"/>
</g>
<path d="M12.7461 107.167V120.82H9.92188V107.167H12.7461ZM17.293 107.167V109.417H5.43359V107.167H17.293ZM28.9628 118.582V120.82H21.1464V118.582H28.9628ZM22.037 107.167V120.82H19.2128V107.167H22.037ZM27.955 112.64V114.878H21.1464V112.64H27.955ZM28.9394 107.167V109.417H21.1464V107.167H28.9394ZM36.5897 109.968L32.4881 120.82H29.6287L35.1248 107.167H37.0233L36.5897 109.968ZM40.3748 120.82L36.2498 109.945L35.8162 107.167H37.7498L43.2342 120.82H40.3748ZM40.1991 115.757V117.878H32.3944V115.757H40.1991ZM53.1931 116.273H56.0291C55.9588 117.203 55.6853 118.023 55.2088 118.734C54.74 119.445 54.0838 120.003 53.24 120.41C52.3963 120.808 51.3767 121.007 50.1814 121.007C49.2517 121.007 48.4158 120.855 47.6736 120.55C46.9392 120.246 46.3103 119.812 45.7869 119.25C45.2713 118.679 44.8728 117.992 44.5916 117.187C44.3181 116.375 44.1814 115.464 44.1814 114.457V113.542C44.1814 112.535 44.322 111.628 44.6033 110.824C44.8845 110.011 45.2908 109.32 45.822 108.75C46.3533 108.171 46.9861 107.734 47.7205 107.437C48.4627 107.132 49.2947 106.98 50.2166 106.98C51.4275 106.98 52.447 107.187 53.2752 107.601C54.1033 108.007 54.7478 108.574 55.2088 109.3C55.6697 110.027 55.947 110.859 56.0408 111.796H53.2166C53.1697 111.289 53.0408 110.843 52.8298 110.46C52.6189 110.07 52.3025 109.765 51.8806 109.546C51.4588 109.328 50.9041 109.218 50.2166 109.218C49.6853 109.218 49.2205 109.312 48.822 109.5C48.4236 109.679 48.0877 109.953 47.8142 110.32C47.5486 110.687 47.3455 111.14 47.2048 111.679C47.072 112.21 47.0056 112.828 47.0056 113.531V114.457C47.0056 115.144 47.0642 115.757 47.1814 116.296C47.3064 116.828 47.4978 117.277 47.7556 117.644C48.0134 118.011 48.3416 118.292 48.74 118.488C49.1463 118.675 49.6267 118.769 50.1814 118.769C50.8455 118.769 51.3884 118.679 51.8103 118.5C52.2322 118.312 52.5564 118.031 52.783 117.656C53.0095 117.281 53.1463 116.82 53.1931 116.273ZM67.9802 112.98V115.23H60.2458V112.98H67.9802ZM61.0427 107.167V120.82H58.2184V107.167H61.0427ZM70.0427 107.167V120.82H67.2184V107.167H70.0427Z" fill="white"/>
<defs>
<clipPath id="clip0_400_849">
<rect width="81.03" height="80.82" fill="white"/>
</clipPath>
</defs>
</svg>
