<svg width="35" height="35" viewBox="0 0 35 35" fill="none" xmlns="http://www.w3.org/2000/svg">
<g clip-path="url(#clip0_418_971)">
<path fill-rule="evenodd" clip-rule="evenodd" d="M31.1128 0.66965C28.1756 1.53353 28.1756 1.53353 29.0826 2.4406C29.7738 3.1317 29.0826 3.90919 16.8588 16.1331L3.85742 29.1344L4.80769 30.1279L5.75795 31.1213L18.8025 18.0768C30.1193 6.75999 31.8902 5.16181 32.3654 5.72333C32.7109 6.11208 33.0565 6.41444 33.2293 6.41444C33.5316 6.41444 35.0002 1.36075 35.0002 0.410487C35.0002 -0.194228 34.0068 -0.151034 31.1128 0.66965Z" fill="#1E1E1E"/>
<path fill-rule="evenodd" clip-rule="evenodd" d="M12.5396 1.44732C7.74512 2.82953 3.55531 6.28504 1.43881 10.734C-0.116166 13.9304 -0.461717 19.8479 0.661323 23.4762L1.43881 25.9383L8.26344 19.1136C14.9585 12.4618 15.1313 12.3322 15.952 13.0665C16.7726 13.844 16.8158 13.8008 17.291 11.9434C17.5501 10.95 17.9821 9.43819 18.2412 8.6607C18.4572 7.88321 18.5868 7.14892 18.5004 7.06253C18.414 6.93295 16.8158 7.2785 14.9585 7.79682C11.719 8.6607 11.6758 8.70389 12.4101 9.52458C13.1012 10.3021 12.9716 10.518 8.22025 15.2694C5.49904 17.9906 3.12337 20.2367 2.9506 20.2367C2.73463 20.2367 2.60505 19.1568 2.60505 17.861C2.60505 12.8505 5.93098 7.62405 10.5959 5.20519C13.4899 3.7366 18.3708 3.39105 21.5672 4.47089C23.7269 5.162 23.8564 5.162 24.6771 4.4277C25.1091 4.03896 25.4978 3.52063 25.4978 3.34785C25.4978 3.17508 24.3748 2.61356 23.0358 2.09523C19.753 0.885803 15.5632 0.626639 12.5396 1.44732Z" fill="#1E1E1E"/>
<path fill-rule="evenodd" clip-rule="evenodd" d="M30.4652 10.3019C29.7309 11.1225 29.7309 11.2521 30.4652 13.5846C32.6249 20.4956 29.2126 28.1841 22.6903 31.0781C20.4442 32.0716 14.6994 32.7627 14.6994 32.0284C14.6994 31.8124 15.4337 30.9053 16.3408 30.0415C17.8094 28.6161 18.0685 28.4865 18.5869 29.0912C18.8892 29.4368 19.2348 29.7391 19.4075 29.7391C19.7099 29.7391 21.1785 24.6422 21.1785 23.5624C21.1785 23.0441 20.6602 23.0873 18.0685 23.8216C16.3408 24.2535 14.829 24.7286 14.7426 24.815C14.613 24.9446 14.8722 25.3333 15.2609 25.7221C15.952 26.4132 15.7793 26.6723 12.4965 29.9983L9.04102 33.497L11.2871 34.1881C14.3539 35.1815 19.7099 35.1383 22.6903 34.1017C27.3552 32.4603 31.3291 28.4865 33.1 23.692C34.223 20.7548 34.0935 15.0532 32.884 11.9C32.3657 10.561 31.761 9.43799 31.5882 9.43799C31.4154 9.43799 30.8971 9.82673 30.4652 10.3019Z" fill="#1E1E1E"/>
</g>
<defs>
<clipPath id="clip0_418_971">
<rect width="35" height="34.9093" fill="white"/>
</clipPath>
</defs>
</svg>
