<svg width="35" height="35" viewBox="0 0 35 35" fill="none" xmlns="http://www.w3.org/2000/svg">
<circle cx="17.5" cy="17.5" r="17.5" fill="#E9EBF8"/>
<path d="M20.9355 17.0645C21.2162 17.0645 21.4502 17.1639 21.6373 17.3627C21.8361 17.5498 21.9355 17.7838 21.9355 18.0645C21.9355 18.3335 21.8361 18.5674 21.6373 18.7662C21.4502 18.965 21.2162 19.0645 20.9355 19.0645H12.9355C12.6665 19.0645 12.4326 18.965 12.2338 18.7662C12.035 18.5674 11.9355 18.3335 11.9355 18.0645C11.9355 17.7838 12.035 17.5498 12.2338 17.3627C12.4326 17.1639 12.6665 17.0645 12.9355 17.0645H20.9355ZM24.9355 11.0645C25.2162 11.0645 25.4502 11.1639 25.6373 11.3627C25.8361 11.5498 25.9355 11.7838 25.9355 12.0645C25.9355 12.3335 25.8361 12.5674 25.6373 12.7662C25.4502 12.965 25.2162 13.0645 24.9355 13.0645H8.93555C8.66654 13.0645 8.43262 12.965 8.23379 12.7662C8.03496 12.5674 7.93555 12.3335 7.93555 12.0645C7.93555 11.7838 8.03496 11.5498 8.23379 11.3627C8.43262 11.1639 8.66654 11.0645 8.93555 11.0645H24.9355ZM22.9355 23.0645C23.2162 23.0645 23.4502 23.1639 23.6373 23.3627C23.8361 23.5498 23.9355 23.7838 23.9355 24.0645C23.9355 24.3335 23.8361 24.5674 23.6373 24.7662C23.4502 24.965 23.2162 25.0645 22.9355 25.0645H10.9355C10.6665 25.0645 10.4326 24.965 10.2338 24.7662C10.035 24.5674 9.93555 24.3335 9.93555 24.0645C9.93555 23.7838 10.035 23.5498 10.2338 23.3627C10.4326 23.1639 10.6665 23.0645 10.9355 23.0645H22.9355Z" fill="#1E1E1E"/>
</svg>
