<svg width="18" height="18" viewBox="0 0 18 18" fill="none" xmlns="http://www.w3.org/2000/svg">
<mask id="mask0_447_1075" style="mask-type:luminance" maskUnits="userSpaceOnUse" x="0" y="0" width="17" height="17">
<path fill-rule="evenodd" clip-rule="evenodd" d="M0.666016 0.575684H16.8967V16.8065H0.666016V0.575684Z" fill="white"/>
</mask>
<g mask="url(#mask0_447_1075)">
<path fill-rule="evenodd" clip-rule="evenodd" d="M8.78185 1.82568C4.99602 1.82568 1.91602 4.90485 1.91602 8.69068C1.91602 12.4765 4.99602 15.5565 8.78185 15.5565C12.5668 15.5565 15.6468 12.4765 15.6468 8.69068C15.6468 4.90485 12.5668 1.82568 8.78185 1.82568ZM8.78185 16.8065C4.30685 16.8065 0.666016 13.1657 0.666016 8.69068C0.666016 4.21568 4.30685 0.575684 8.78185 0.575684C13.2568 0.575684 16.8968 4.21568 16.8968 8.69068C16.8968 13.1657 13.2568 16.8065 8.78185 16.8065Z" fill="#1E1E1E"/>
</g>
<mask id="mask1_447_1075" style="mask-type:luminance" maskUnits="userSpaceOnUse" x="13" y="13" width="5" height="5">
<path fill-rule="evenodd" clip-rule="evenodd" d="M13.3652 13.665H17.5519V17.844H13.3652V13.665Z" fill="white"/>
</mask>
<g mask="url(#mask1_447_1075)">
<path fill-rule="evenodd" clip-rule="evenodd" d="M16.9271 17.844C16.7679 17.844 16.6079 17.7832 16.4854 17.6615L13.5488 14.7332C13.3046 14.489 13.3038 14.0932 13.5479 13.849C13.7913 13.6032 14.1871 13.6048 14.4321 13.8473L17.3688 16.7765C17.6129 17.0207 17.6138 17.4157 17.3696 17.6598C17.2479 17.7832 17.0871 17.844 16.9271 17.844Z" fill="#1E1E1E"/>
</g>
</svg>
