<svg width="300" height="198" viewBox="0 0 300 198" fill="none" xmlns="http://www.w3.org/2000/svg">
<g clip-path="url(#clip0_400_852)">
<path d="M116.273 183.731L48.5781 34.0154C44.1509 24.2164 51.3148 13.1323 62.101 13.1323H209.928C215.763 13.1323 221.036 16.5459 223.451 21.847L291.146 171.603C295.573 181.402 288.409 192.486 277.623 192.486H129.796C123.96 192.445 118.688 189.032 116.273 183.731Z" fill="#E9EBF8"/>
<path d="M89.7105 123.371L74.0142 85.2591C72.9276 82.6487 74.8594 79.7974 77.6767 79.7974H141.548C143.158 79.7974 144.607 80.7612 145.211 82.2471L160.907 120.359C161.994 122.969 160.062 125.82 157.245 125.82H93.4132C91.8033 125.82 90.3545 124.857 89.7105 123.371Z" fill="url(#paint0_linear_400_852)"/>
<path d="M142.515 197.786H111.485C100.055 197.786 89.6709 190.598 85.6865 179.915L64.9996 124.656C64.0739 122.206 64.3959 119.555 65.9253 117.387C67.4144 115.218 69.789 113.973 72.405 113.973H80.8971V114.776H72.405C70.0304 114.776 67.8974 115.901 66.5692 117.828C65.2411 119.756 64.9191 122.126 65.7643 124.334L86.4512 179.594C90.3551 189.955 100.417 196.943 111.485 196.943H142.515V197.786Z" fill="#8E98A8"/>
<path d="M293.44 197.787H142.514V196.983H293.399C295.371 196.983 297.182 195.979 298.269 194.333C299.356 192.686 299.477 190.638 298.672 188.831L220.351 15.5418C216.286 6.58619 207.311 0.803194 197.451 0.803194H47.5312V0H197.491C207.633 0 216.93 5.9838 221.076 15.2205L299.436 188.51C300.362 190.558 300.201 192.887 298.953 194.775C297.746 196.662 295.653 197.787 293.44 197.787Z" fill="#8E98A8"/>
<path d="M247.237 167.265C247.237 167.265 256.132 164.976 260.639 174.092C263.94 180.759 258.949 197.385 258.949 197.385H227.959L247.237 167.265Z" fill="white"/>
<path d="M156.963 147.587C156.963 147.587 169.761 117.548 176.04 107.789C183.123 96.7448 201.355 93.6926 209.847 94.0942C227.958 94.9376 241.522 98.5118 248.887 105.741C256.252 112.969 258.908 118.471 261.001 129.354C263.094 140.238 261.605 158.229 261.605 158.229C261.605 158.229 254.36 159.836 246.633 159.836C238.905 159.836 236.933 157.627 236.933 157.627L231.259 197.425H165.535L175.798 153.531C175.798 153.49 163.161 146.824 156.963 147.587Z" fill="#1E1E1E"/>
<path d="M176.362 153.651L175.195 153.37C175.276 153.009 183.969 118.23 186.183 109.034L187.35 109.315C185.177 118.471 176.443 153.29 176.362 153.651Z" fill="black" fill-opacity="0.4"/>
<path d="M156.963 147.587L149.195 167.305L130.319 168.751C130.319 168.751 112.57 170.397 111.484 178.63C110.397 186.943 115.025 187.024 115.025 187.024C115.025 187.024 142.916 187.024 153.783 187.024C164.086 187.024 169.359 180.277 170.727 173.691L175.838 153.53C175.798 153.49 168.071 147.506 156.963 147.587Z" fill="#FFCC99"/>
<path d="M179.5 94.8574H160.021C159.417 94.8574 158.853 95.1385 158.531 95.6606L158.089 96.3433C157.767 96.8252 157.726 97.4276 157.928 97.9497L165.695 117.066C165.736 117.106 165.736 117.186 165.736 117.226L168.996 128.11C169.237 128.833 169.921 129.355 170.686 129.355H188.314C189.481 129.355 190.326 128.23 190.004 127.106L181.19 96.0622C180.989 95.3795 180.305 94.8574 179.5 94.8574Z" fill="#1E1E1E"/>
<path d="M159.821 97.1465H178.093C178.818 97.1465 179.502 97.6284 179.703 98.3513L188.598 129.555C188.879 130.6 188.115 131.644 186.988 131.644H169.158C168.434 131.644 167.79 131.162 167.589 130.479L158.251 99.275C157.929 98.1906 158.734 97.1465 159.821 97.1465Z" fill="white"/>
<path d="M192.822 197.787H138.529V196.983H192.822C195.64 196.983 198.175 195.658 199.825 193.409C201.475 191.16 201.878 188.309 200.952 185.658L173.584 106.022L174.349 105.781L201.757 185.377C202.763 188.269 202.321 191.361 200.509 193.891C198.698 196.381 195.921 197.787 192.822 197.787Z" fill="#FD7A17"/>
<g style="mix-blend-mode:multiply">
<g opacity="0.7">
<path opacity="0.7" d="M163.725 117.708C163.725 117.708 167.951 113.291 170.084 112.969C172.217 112.648 176.845 115.379 178.535 116.945C180.226 118.511 184.331 120.158 185.901 120.278C187.47 120.399 187.873 120.278 187.873 120.278L188.758 123.652C188.758 123.652 181.795 124.616 177.207 123.21C172.619 121.845 164.288 120.319 164.288 120.319L163.725 117.708Z" fill="black" fill-opacity="0.04"/>
</g>
</g>
<path d="M169.963 129.274C169.963 129.274 165.616 126.262 164.248 126.824C162.88 127.387 162.759 128.31 163.765 129.595C164.771 130.88 172.418 134.334 174.31 135.218C176.201 136.101 179.381 136.543 179.381 136.543L169.963 129.274Z" fill="#FFA74F"/>
<path d="M236.934 157.627L231.058 175.418L202.281 139.194C202.281 139.194 198.86 133.812 198.096 129.555C197.371 125.298 196.607 123.09 195.721 121.724C194.836 120.319 188.598 118.03 187.35 118.19L188.799 123.652C188.799 123.652 181.071 122.527 178.536 120.64C176 118.752 172.821 115.58 171.09 115.499C169.36 115.419 168.474 116.463 168.957 117.708C168.957 117.708 168.233 116.704 166.582 117.347C164.932 117.989 165.536 119.756 165.536 119.756C165.536 119.756 164.852 118.793 163.322 119.556C161.793 120.319 162.397 121.724 162.397 121.724C162.397 121.724 174.914 135.78 179.019 136.543C183.124 137.306 185.901 137.748 186.827 138.391C187.752 139.033 188.678 141.523 188.799 141.603C188.919 141.684 210.049 181.08 221.68 191.843C224.981 194.895 233.875 199.875 242.086 194.293C250.256 188.751 257.943 158.832 257.943 158.832C257.943 158.832 252.63 159.916 246.714 159.755C240.275 159.635 236.934 157.627 236.934 157.627Z" fill="#FFCC99"/>
<path d="M231.057 175.417L237.617 183.208C237.617 183.208 238.422 179.715 236.208 173.691C233.995 167.667 233.713 167.466 233.713 167.466L231.057 175.417Z" fill="#FFA74F"/>
<path d="M191.495 125.017C191.414 125.017 191.334 124.977 191.253 124.937C190.971 124.736 189.321 124.214 188.235 123.933C188.033 123.893 187.872 123.652 187.953 123.451C187.993 123.25 188.235 123.09 188.436 123.17C188.878 123.291 191.213 123.893 191.736 124.295C191.897 124.415 191.937 124.696 191.817 124.857C191.736 124.977 191.615 125.017 191.495 125.017Z" fill="#C97C00"/>
<path d="M183.525 127.909C183.485 127.909 183.485 127.909 183.525 127.909C183.364 127.909 180.185 127.587 177.287 126.222C177.086 126.142 177.005 125.901 177.086 125.7C177.166 125.499 177.408 125.419 177.609 125.499C180.386 126.784 183.525 127.105 183.565 127.105C183.766 127.146 183.968 127.306 183.927 127.547C183.887 127.748 183.726 127.909 183.525 127.909Z" fill="#C97C00"/>
<path d="M180.307 131.924C180.266 131.924 180.266 131.924 180.226 131.924C178.938 131.683 175.96 130.479 173.948 129.033C173.787 128.912 173.706 128.671 173.867 128.471C173.988 128.31 174.229 128.27 174.431 128.39C176.282 129.716 179.18 130.88 180.427 131.121C180.629 131.161 180.79 131.362 180.749 131.603C180.669 131.804 180.508 131.924 180.307 131.924Z" fill="#C97C00"/>
<path d="M177.287 126.222C174.349 124.857 168.915 118.27 168.674 117.989L169.278 117.467C169.318 117.548 174.832 124.214 177.609 125.499L177.287 126.222Z" fill="#FFA74F"/>
<path d="M173.946 129.033C171.974 127.628 165.495 120.318 165.213 119.997L165.817 119.475C165.897 119.555 172.498 127.025 174.429 128.391L173.946 129.033Z" fill="#FFA74F"/>
<path d="M149.195 167.265L158.533 166.663C158.533 166.663 155.554 162.526 151.731 160.88L149.195 167.265Z" fill="#FFA74F"/>
<path d="M203.568 98.7124C203.931 97.7485 204.051 87.8291 204.051 87.8291L228.602 69.958L227.998 100.801C227.998 100.801 222.847 103.13 213.751 103.009C204.655 102.889 203.568 98.7124 203.568 98.7124Z" fill="#FFCC99"/>
<path d="M196.806 58.151C196.806 58.151 193.385 76.6245 195.599 84.3351C197.813 92.0458 203.648 93.612 206.506 93.6522C214.676 93.6924 219.103 89.1543 221.236 86.062C223.369 82.9697 224.255 79.3152 225.422 77.9096C226.549 76.504 228.601 73.8133 228.601 73.8133C228.601 73.8133 230.01 63.7734 228.601 58.4723C227.193 53.1712 225.945 48.2717 216.407 46.7055C203.004 44.4967 197.974 50.3199 196.806 58.151Z" fill="#FFCC99"/>
<path d="M214.676 60.6411C214.676 60.6411 217.896 61.6451 221.719 61.1632L222.484 57.5488C222.484 57.5488 218.741 60.8419 214.676 60.6411Z" fill="#FFA74F"/>
<path d="M227.595 46.6253C224.899 42.4487 214.716 42.4889 210.651 43.1314C205.58 43.9346 199.382 46.1434 195.921 47.1474C193.063 47.9506 192.178 50.6815 192.983 52.8501C193.104 53.1714 193.265 53.4926 193.426 53.7738C193.828 54.7376 194.311 56.2235 193.868 57.3078C193.144 59.0347 194.512 63.3318 195.8 64.4964C195.8 64.4964 196.565 58.5929 197.37 55.7014C197.491 55.2998 197.652 54.8179 197.853 54.3762C198.135 53.7336 198.457 53.091 198.779 52.7296C198.779 52.7296 200.59 54.2958 205.5 55.5809C205.5 55.5809 205.782 59.3158 212.382 60.4001C218.982 61.4443 221.84 58.2717 221.84 58.2717C221.84 58.2717 221.518 64.135 221.518 64.8177C221.518 65.5004 222.242 65.8618 223.41 65.2193C224.537 64.5767 226.509 64.5767 226.67 67.1068C226.831 69.6369 225.1 71.8456 222.927 72.0063C222.927 72.0063 222.524 74.0544 224.134 75.0183C225.704 75.9821 225.382 77.8696 225.382 77.8696C225.382 77.8696 226.227 79.9981 228.36 79.9981C228.36 79.9981 232.143 69.7975 232.063 62.6089C232.022 55.4203 230.332 50.8019 227.595 46.6253Z" fill="#1E1E1E"/>
<path d="M134.747 186.984H118.568L114.262 150.157H139.054L134.747 186.984Z" fill="white"/>
<g style="mix-blend-mode:multiply">
<g opacity="0.7">
<path opacity="0.7" d="M115.91 163.771C115.91 163.771 120.659 171.322 135.068 171.322L136.597 170.92L137.442 163.771H115.91Z" fill="#C4E2E5"/>
</g>
</g>
<path d="M112.248 170.237C112.248 170.237 112.288 168.108 115.91 166.743C119.532 165.378 124.322 164.293 125.408 165.337C126.495 166.341 126.133 167.827 125.408 168.39C124.724 168.952 115.548 173.128 114.381 172.928C113.254 172.727 111.805 171.843 112.248 170.237Z" fill="#FFCC99"/>
<path d="M112.248 170.639C112.248 170.639 112.208 170.639 112.248 170.639C112.007 170.639 111.846 170.438 111.846 170.237C111.846 170.157 111.926 167.827 115.79 166.342C115.991 166.261 116.233 166.382 116.313 166.583C116.394 166.783 116.273 167.024 116.072 167.105C112.771 168.35 112.651 170.157 112.651 170.237C112.61 170.478 112.449 170.639 112.248 170.639Z" fill="#C97C00"/>
<path d="M114.502 173.329C114.461 173.329 114.421 173.329 114.381 173.329C114.18 173.289 114.019 173.088 114.059 172.847C114.099 172.647 114.3 172.486 114.542 172.526C115.548 172.687 124.604 168.631 125.248 168.068C125.57 167.828 125.771 167.346 125.771 166.904C125.771 166.583 125.69 166.061 125.207 165.619C125.046 165.458 125.046 165.217 125.207 165.057C125.368 164.896 125.61 164.896 125.771 165.057C126.294 165.579 126.616 166.221 126.576 166.944C126.576 167.627 126.254 168.309 125.771 168.711C125.006 169.273 116.232 173.329 114.502 173.329Z" fill="#C97C00"/>
<path d="M116.073 167.104L115.791 166.341C119.051 165.096 124.364 163.731 125.732 165.016L125.169 165.618C124.364 164.855 120.097 165.578 116.073 167.104Z" fill="#FFA74F"/>
<path d="M137.323 153.812H115.992C115.026 153.812 114.262 153.049 114.262 152.085V150.117C114.262 149.153 115.026 148.39 115.992 148.39H137.323C138.289 148.39 139.054 149.153 139.054 150.117V152.085C139.054 153.049 138.289 153.812 137.323 153.812Z" fill="white"/>
<path d="M138.128 163.771H115.067C113.9 163.771 112.934 162.807 112.934 161.643V154.414C112.934 153.249 113.9 152.286 115.067 152.286H138.128C139.295 152.286 140.261 153.249 140.261 154.414V161.643C140.261 162.807 139.295 163.771 138.128 163.771Z" fill="#8E98A8"/>
<path d="M136.598 146.623H116.676V148.43H136.598V146.623Z" fill="#8E98A8"/>
<path d="M129.111 146.623C129.111 146.623 131.566 145.82 132.412 143.772H133.82V146.623H129.111Z" fill="white"/>
<path d="M113.093 174.574C113.093 174.574 116.997 169.313 120.901 168.108C124.765 166.904 124.282 170.116 123.477 171.361C122.672 172.606 115.87 179.755 115.87 179.755C115.87 179.755 113.214 181.361 111.443 179.755C111.443 179.715 111.121 176.823 113.093 174.574Z" fill="#FFCC99"/>
<path d="M115.871 180.116C115.791 180.116 115.67 180.076 115.589 179.996C115.429 179.835 115.429 179.594 115.589 179.434C117.924 176.984 122.552 172.044 123.156 171.121C123.558 170.478 123.88 169.233 123.397 168.631C122.955 168.028 121.868 168.229 121.023 168.51C120.822 168.591 120.58 168.47 120.5 168.229C120.419 168.028 120.54 167.787 120.781 167.707C122.351 167.225 123.438 167.346 124.041 168.109C124.766 169.072 124.363 170.719 123.8 171.522C122.995 172.767 116.435 179.675 116.153 179.956C116.072 180.076 115.952 180.116 115.871 180.116Z" fill="#C97C00"/>
<path d="M113.415 174.815L112.771 174.333C112.932 174.133 116.836 168.952 120.781 167.707L121.022 168.47C117.319 169.635 113.456 174.735 113.415 174.815Z" fill="#FFA74F"/>
<path d="M125.249 173.088C125.249 173.088 124.162 172.044 122.07 172.767C119.977 173.53 113.296 180.799 112.934 182.084C112.451 183.771 113.779 185.257 115.751 185.257C117.481 185.217 123.076 178.751 124.283 177.225C125.491 175.699 125.692 174.655 125.249 173.088Z" fill="#FFCC99"/>
<path d="M125.249 173.088C125.249 173.088 124.162 172.044 122.07 172.767C119.977 173.53 113.296 180.799 112.934 182.084C112.451 183.771 113.779 185.257 115.751 185.257C117.481 185.217 123.076 178.751 124.283 177.225C125.491 175.699 125.692 174.655 125.249 173.088Z" fill="#FFCC99"/>
<path d="M236.651 158.149L230.936 155.016L231.016 154.575C231.258 153.209 237.093 120.68 242.084 115.098L242.969 115.901C238.542 120.921 232.988 150.478 232.264 154.374L237.214 157.105L236.651 158.149Z" fill="black" fill-opacity="0.4"/>
<path d="M140.019 167.988C140.019 167.988 139.576 167.345 137.041 167.305C134.505 167.225 128.106 172.205 128.428 174.574C128.75 176.943 130.641 177.064 132.372 176.221C134.103 175.377 137.886 172.526 137.886 172.526" fill="#FFCC99"/>
<path d="M130.521 177.104C130.079 177.104 129.676 177.024 129.314 176.823C128.831 176.542 128.187 175.94 127.986 174.614C127.865 173.53 128.75 172.285 129.555 171.402C131.527 169.233 135.069 166.864 137.001 166.904C139.617 166.984 141.066 167.707 141.146 167.747L140.784 168.47C140.784 168.47 139.416 167.787 137.001 167.707C135.512 167.667 132.171 169.755 130.159 171.964C129.193 173.008 128.71 173.972 128.791 174.534C128.911 175.337 129.193 175.859 129.676 176.141C130.28 176.462 131.165 176.382 132.131 175.9C133.781 175.056 137.564 172.285 137.605 172.245L138.088 172.888C137.927 173.008 134.224 175.739 132.493 176.622C131.849 176.944 131.165 177.104 130.521 177.104Z" fill="#FFA74F"/>
<path d="M115.75 185.699C115.549 185.699 115.348 185.538 115.348 185.297C115.348 185.056 115.509 184.896 115.75 184.896C117.038 184.896 121.868 179.675 124.001 176.984C125.047 175.659 125.289 174.735 124.926 173.33C124.685 173.129 123.759 172.607 122.23 173.169C122.029 173.249 121.787 173.129 121.707 172.928C121.626 172.727 121.747 172.486 121.948 172.406C124.282 171.603 125.49 172.767 125.57 172.807C125.611 172.848 125.651 172.928 125.691 172.968C126.174 174.695 125.933 175.86 124.645 177.466C124.524 177.546 117.964 185.659 115.75 185.699Z" fill="#C97C00"/>
<path d="M113.294 182.205L112.529 182.004C112.892 180.639 119.653 173.209 121.907 172.406L122.189 173.169C120.216 173.892 113.616 181.04 113.294 182.205Z" fill="#FFA74F"/>
<path d="M118.567 186.984C118.567 186.984 115.75 187.385 115.75 185.257C115.75 183.128 122.713 176.984 125.168 177.506C127.623 177.988 126.576 180.518 125.771 181.482C124.967 182.446 119.895 186.863 119.895 186.863" fill="#FFCC99"/>
<path d="M50.1875 99.7168L35.6181 64.336C34.1692 60.8421 36.745 56.9868 40.5685 56.9868H101.462C103.635 56.9868 105.567 58.3121 106.412 60.2799L120.982 95.6606C122.431 99.1545 119.855 103.01 116.031 103.01H55.1378C52.9645 103.01 51.0326 101.725 50.1875 99.7168Z" fill="white"/>
<path d="M48.5372 87.0662L47.4908 84.5763C47.3701 84.3353 47.5713 84.0542 47.853 84.0542H52.1595C52.3204 84.0542 52.4412 84.1345 52.5217 84.2952L53.5681 86.7851C53.6888 87.026 53.4876 87.3071 53.2059 87.3071H48.8995C48.6982 87.3071 48.5775 87.2268 48.5372 87.0662Z" fill="white"/>
<path d="M98.3629 85.5H55.2988V85.9016H98.3629V85.5Z" fill="white"/>
<path d="M50.9533 92.6082L49.9068 90.1183C49.7861 89.8773 49.9873 89.5962 50.2691 89.5962H54.5755C54.7365 89.5962 54.8572 89.6765 54.9377 89.8371L55.9841 92.327C56.1048 92.568 55.9036 92.8491 55.6219 92.8491H51.3155C51.1142 92.8491 50.9935 92.7688 50.9533 92.6082Z" fill="white"/>
<path d="M100.779 91.042H57.7148V91.4436H100.779V91.042Z" fill="white"/>
<path d="M53.3673 98.1502L52.3209 95.6603C52.2002 95.4193 52.4014 95.1382 52.6831 95.1382H56.9895C57.1505 95.1382 57.2713 95.2185 57.3518 95.3791L58.3982 97.869C58.5189 98.11 58.3177 98.3911 58.0359 98.3911H53.7295C53.5283 98.3911 53.4076 98.2706 53.3673 98.1502Z" fill="white"/>
<path d="M103.193 96.5439H60.1289V96.9455H103.193V96.5439Z" fill="white"/>
<path d="M42.0984 69.7573L39.2006 62.7695C38.9189 62.0868 39.4421 61.3237 40.1665 61.3237H52.2003C52.643 61.3237 53.0053 61.5647 53.1662 61.9663L56.064 68.9541C56.3457 69.6368 55.8225 70.3998 55.0981 70.3998H43.0643C42.6216 70.3998 42.2594 70.1589 42.0984 69.7573Z" fill="white"/>
<path d="M59.5256 69.1147L56.9096 62.7695C56.6279 62.0868 57.1511 61.3237 57.8755 61.3237H100.416C100.859 61.3237 101.221 61.5647 101.382 61.9663L104.28 68.9541C104.562 69.6368 104.039 70.3998 103.314 70.3998H61.4575C60.6123 70.3998 59.8476 69.9179 59.5256 69.1147Z" fill="#8E98A8"/>
<path d="M46.0432 80.4799L43.4272 74.1347C43.1454 73.452 43.6686 72.689 44.3931 72.689H69.9096C70.3523 72.689 70.7145 72.9299 70.8755 73.3315L73.7733 80.3193C74.055 81.002 73.5318 81.7651 72.8074 81.7651H47.9751C47.1299 81.7651 46.3652 81.2831 46.0432 80.4799Z" fill="#8E98A8"/>
<path d="M75.9456 80.4799L73.3295 74.1347C73.0478 73.452 73.571 72.689 74.2954 72.689H105.326C105.768 72.689 106.131 72.9299 106.292 73.3315L109.189 80.3193C109.471 81.002 108.948 81.7651 108.224 81.7651H77.8774C77.0322 81.7651 76.2675 81.2831 75.9456 80.4799Z" fill="white"/>
<path d="M132.371 57.2274L124 36.9468H179.541L186.584 54.095C187.711 56.8258 185.698 59.7977 182.76 59.7977H136.195C134.545 59.7977 133.015 58.7937 132.371 57.2274Z" fill="#1E1E1E"/>
<path d="M134.788 47.6292L133.218 43.7739C133.057 43.4125 133.339 42.9707 133.741 42.9707H140.342C140.583 42.9707 140.784 43.1313 140.865 43.3321L142.434 47.1875C142.595 47.5489 142.314 47.9907 141.911 47.9907H135.311C135.069 47.9907 134.868 47.83 134.788 47.6292Z" fill="white"/>
<path d="M144.124 47.6292L142.554 43.7739C142.393 43.4125 142.675 42.9707 143.077 42.9707H172.498C172.739 42.9707 172.94 43.1313 173.021 43.3321L174.59 47.1875C174.751 47.5489 174.47 47.9907 174.067 47.9907H144.647C144.405 47.9907 144.204 47.83 144.124 47.6292Z" fill="white"/>
<path d="M179.54 65.8617H104.359V65.0585H179.54C180.587 65.0585 181.553 64.5364 182.157 63.6529C182.76 62.7694 182.841 61.6851 182.438 60.7213L179.017 52.7295L179.742 52.4082L183.163 60.4C183.686 61.6048 183.565 63.0104 182.841 64.0947C182.116 65.179 180.869 65.8617 179.54 65.8617Z" fill="black"/>
<path d="M121.949 39.0353L120.741 36.184C120.258 35.0595 121.104 33.7744 122.351 33.7744H179.663C180.347 33.7744 180.991 34.176 181.273 34.8186L182.48 37.6699C182.963 38.7944 182.118 40.0795 180.87 40.0795H123.559C122.874 40.0795 122.231 39.6779 121.949 39.0353Z" fill="white"/>
<path d="M2.61695 49.236L0.161888 43.2924C-0.482062 41.686 0.685097 39.9189 2.41571 39.9189H70.5939C72.8075 39.9189 74.7796 41.2442 75.6247 43.2522L78.0798 49.1958C78.7237 50.8022 77.5566 52.5692 75.826 52.5692H7.6478C5.43423 52.5692 3.46213 51.244 2.61695 49.236Z" fill="#FD7A17"/>
<path d="M128.789 79.4762L120.418 59.1554C119.693 57.4285 120.981 55.541 122.833 55.541H157.324C158.371 55.541 159.337 56.1836 159.739 57.1474L168.11 77.4682C168.835 79.1951 167.547 81.0826 165.696 81.0826H131.204C130.158 81.0826 129.192 80.44 128.789 79.4762Z" fill="white"/>
<path d="M121.424 74.7775L113.053 54.4567C112.328 52.7298 113.616 50.8423 115.467 50.8423H149.959C151.005 50.8423 151.971 51.4848 152.374 52.4487L160.745 72.7695C161.47 74.4964 160.182 76.3839 158.33 76.3839H123.839C122.792 76.3839 121.826 75.7413 121.424 74.7775Z" fill="white"/>
<path d="M121.385 67.7095C121.385 67.7095 125.329 61.7257 128.146 62.3281C130.964 62.9305 133.378 64.6573 134.183 65.0589C134.988 65.4605 140.864 58.9145 144.245 58.3121C147.626 57.7097 154.669 64.818 154.669 64.818L157.768 72.6893H123.397L121.385 67.7095Z" fill="#1E1E1E"/>
<path d="M79.5679 117.307L63.8717 79.1951C62.785 76.5847 64.7168 73.7334 67.5341 73.7334H131.406C133.016 73.7334 134.465 74.6972 135.068 76.1831L150.765 114.295C151.851 116.905 149.919 119.756 147.102 119.756H83.2304C81.6205 119.756 80.1716 118.793 79.5679 117.307Z" fill="#1E1E1E"/>
<path d="M224.497 66.5444C224.497 66.5444 224.014 66.3035 222.927 67.0263C221.841 67.7492 221.921 68.8335 221.921 68.8335C221.921 68.8335 222.927 68.1508 223.29 68.713C223.652 69.3154 222.887 69.5965 222.847 69.6769C222.807 69.7572 223.048 70.3596 223.813 70.0785C224.578 69.7973 225.342 68.3918 225.382 67.7894C225.423 67.2271 225.262 66.7452 224.497 66.5444Z" fill="#FFA74F"/>
<path d="M185.136 197.947H83.3114C81.7418 197.947 80.4941 196.702 80.4941 195.136V189.835C80.4941 188.269 81.7418 187.024 83.3114 187.024H185.136C186.706 187.024 187.953 188.269 187.953 189.835V195.136C187.953 196.662 186.665 197.947 185.136 197.947Z" fill="#FD7A17"/>
<path d="M202.441 64.8179C202.441 64.8179 203.125 66.5046 201.435 70.4001C199.744 74.2956 198.336 77.1067 199.06 78.3919C199.784 79.677 202.883 79.0344 203.97 78.7533C205.057 78.4722 206.908 79.3155 207.109 77.5083C207.311 75.7012 206.828 75.2996 206.828 75.2996" fill="url(#paint1_linear_400_852)"/>
<path d="M200.148 73.372C200.148 73.372 202.402 68.7536 202.483 67.0669C202.563 65.3802 203.046 63.1714 200.229 62.1273C197.412 61.0831 196.486 62.3682 196.003 63.4525C195.52 64.577 194.755 72.6893 194.916 75.1792C194.916 75.1792 199.344 75.3398 199.746 74.376C200.148 73.4121 200.148 73.372 200.148 73.372Z" fill="url(#paint2_linear_400_852)"/>
<path d="M209.204 71.123C209.915 71.123 210.492 70.5476 210.492 69.8378C210.492 69.1281 209.915 68.5527 209.204 68.5527C208.493 68.5527 207.916 69.1281 207.916 69.8378C207.916 70.5476 208.493 71.123 209.204 71.123Z" fill="#C97C00"/>
<path d="M198.337 69.7572C199.048 69.7572 199.625 69.1819 199.625 68.4721C199.625 67.7624 199.048 67.187 198.337 67.187C197.625 67.187 197.049 67.7624 197.049 68.4721C197.049 69.1819 197.625 69.7572 198.337 69.7572Z" fill="#C97C00"/>
<path d="M194.674 66.2635C194.553 66.2635 194.473 66.2233 194.392 66.143C194.231 65.9823 194.231 65.7414 194.392 65.5807C195.237 64.7776 196.405 63.8137 197.974 63.8137C199.946 63.7736 200.791 64.7374 200.832 64.7374C200.993 64.898 200.952 65.139 200.791 65.2996C200.63 65.4603 200.389 65.4201 200.228 65.2595C200.188 65.2193 199.544 64.5768 198.014 64.5768H197.974C196.968 64.5768 196.042 65.0587 194.956 66.1028C194.875 66.2233 194.795 66.2635 194.674 66.2635Z" fill="#C97C00"/>
<path d="M206.185 67.3479C206.064 67.3479 205.944 67.3078 205.863 67.1873C205.742 67.0266 205.783 66.7455 205.944 66.6251C206.869 65.9423 208.157 65.1391 209.727 65.3399C211.659 65.5809 212.383 66.5849 212.423 66.6251C212.544 66.8258 212.504 67.0668 212.343 67.1873C212.182 67.3078 211.9 67.2676 211.779 67.107C211.739 67.0668 211.176 66.3038 209.646 66.1431C208.64 66.0227 207.674 66.3439 206.427 67.2676C206.386 67.3078 206.266 67.3479 206.185 67.3479Z" fill="#C97C00"/>
<path d="M204.132 84.4156C203.931 84.4156 203.77 84.4156 203.569 84.4156C199.222 84.1747 198.538 81.5242 198.498 81.4037C198.458 81.2029 198.578 80.9619 198.78 80.9218C198.981 80.8816 199.222 81.0021 199.263 81.2029C199.303 81.2832 199.907 83.3715 203.609 83.6125C207.473 83.8534 209.767 81.4037 209.767 81.3635C209.928 81.2029 210.169 81.2029 210.33 81.3234C210.491 81.484 210.491 81.7249 210.371 81.8856C210.25 82.0061 207.996 84.4156 204.132 84.4156Z" fill="#C97C00"/>
<path d="M203.931 93.2908C203.931 93.2908 214.073 95.7405 221.237 86.062C221.237 86.062 219.506 94.8971 212.02 97.5477C206.184 99.636 203.568 98.7525 203.568 98.7525L203.931 93.2908Z" fill="#FFA74F"/>
<path d="M257.862 158.912L256.775 162.808C256.775 162.808 252.911 164.534 245.385 163.49C237.859 162.446 236.008 160.518 236.008 160.518L236.974 157.627C236.974 157.627 241.642 159.916 246.673 159.836C253.837 159.675 257.862 158.912 257.862 158.912Z" fill="#FFA74F"/>
<path d="M188.315 129.395C186.947 129.395 185.9 129.917 184.009 133.009C182.117 136.101 183.968 136.021 185.86 136.583C187.752 137.145 187.913 137.788 188.637 138.35C189.362 138.912 192.139 137.065 191.495 133.892C190.851 130.68 190.207 129.395 188.315 129.395Z" fill="#FFA74F"/>
<path d="M120.177 187.185L119.654 186.582C121.425 185.056 124.886 182.004 125.49 181.241C125.973 180.638 126.536 179.474 126.255 178.711C126.094 178.309 125.731 178.028 125.128 177.908C124.202 177.707 122.19 178.791 120.057 180.518C117.843 182.365 116.153 184.414 116.153 185.297H115.348C115.348 183.972 117.44 181.642 119.533 179.916C120.419 179.193 123.518 176.783 125.248 177.145C126.375 177.386 126.818 177.988 126.979 178.43C127.381 179.554 126.657 181.04 126.094 181.763C125.289 182.727 120.379 186.984 120.177 187.185Z" fill="#FFA74F"/>
<path d="M135.068 184.012C135.068 184.012 141.508 179.393 141.91 175.056C142.313 170.719 136.195 174.092 136.195 174.092L135.068 184.012Z" fill="#FFA74F"/>
<g style="mix-blend-mode:multiply">
<g opacity="0.7">
<path opacity="0.7" d="M129.111 146.623V148.43H131.486V152.245H129.876V163.771H137.442C137.442 163.771 140.26 164.052 140.26 161.643C140.26 159.233 140.26 154.414 140.26 154.414C140.26 154.414 140.3 152.968 139.012 152.446L139.052 149.756C139.052 149.756 138.891 148.27 136.638 148.43V146.623H129.111Z" fill="#C4E2E5"/>
</g>
</g>
<path d="M93.654 89.3553L91.7222 84.6566C91.5209 84.1345 91.8832 83.5723 92.4466 83.5723H111.282C111.604 83.5723 111.886 83.7731 112.007 84.0542L114.14 89.1946C114.341 89.7167 113.979 90.2789 113.415 90.2789H95.1029C94.459 90.3191 93.8955 89.9577 93.654 89.3553Z" fill="white"/>
<path d="M108.547 97.9095L106.615 93.2108C106.414 92.6887 106.776 92.1265 107.339 92.1265H126.175C126.497 92.1265 126.778 92.3273 126.899 92.6084L129.032 97.7488C129.233 98.2709 128.871 98.8331 128.308 98.8331H109.995C109.352 98.8733 108.788 98.5119 108.547 97.9095Z" fill="#E9EBF8"/>
<path d="M86.7712 107.427L84.8394 102.728C84.6381 102.206 85.0004 101.644 85.5638 101.644H104.399C104.721 101.644 105.003 101.845 105.124 102.126L107.257 107.266C107.458 107.788 107.096 108.351 106.532 108.351H88.2201C87.5762 108.351 87.0127 107.989 86.7712 107.427Z" fill="#8E98A8"/>
<path d="M81.1432 82.2636L80.3965 82.5635L90.8683 108.531L91.615 108.231L81.1432 82.2636Z" fill="white"/>
<path d="M97.6042 82.2666L96.8574 82.5664L107.329 108.534L108.076 108.234L97.6042 82.2666Z" fill="white"/>
<path d="M111.813 82.268L111.066 82.5679L121.538 108.535L122.285 108.236L111.813 82.268Z" fill="white"/>
<path d="M123.284 82.2724L122.537 82.5723L133.009 108.54L133.756 108.24L123.284 82.2724Z" fill="white"/>
<path d="M70.7942 41.003C71.2772 44.7379 68.5404 47.6294 64.7169 47.6294C60.8935 47.6294 57.1908 44.7379 56.3858 41.003C55.5809 37.1076 58.2372 33.8145 62.3826 33.8145C66.5281 33.8145 70.3113 37.0674 70.7942 41.003Z" fill="white"/>
<path d="M63.3084 44.0551L58.8008 40.1997L59.8472 38.9548L63.2279 41.8865L70.8346 34.3364L71.9615 35.4609L63.3084 44.0551Z" fill="black"/>
<path d="M28.7371 47.9507H7.40625V48.7539H28.7371V47.9507Z" fill="white"/>
<path d="M41.6146 47.9507H30.9492V48.7539H41.6146V47.9507Z" fill="white"/>
<path d="M55.2185 47.9507H43.3457V48.7539H55.2185V47.9507Z" fill="white"/>
<path d="M135.068 112.527H88.502V113.331H135.068V112.527Z" fill="white"/>
<path d="M158.129 72.8896H123.275L117.641 59.0747L118.003 58.9141L123.557 72.488H157.525L152.213 59.0747L152.575 58.9141L158.129 72.8896Z" fill="white"/>
<path d="M136.195 60.2397L138.409 65.8621H141.387L139.174 60.2397H136.195Z" fill="#8E98A8"/>
<path d="M167.869 68.7935L170.083 74.3756H173.021L170.807 68.7935H167.869Z" fill="#1E1E1E"/>
<path d="M96.875 37.1074L99.0886 42.6896H102.027L99.813 37.1074H96.875Z" fill="#1E1E1E"/>
<path d="M120.338 11.3252L122.551 16.9074H125.489L123.316 11.3252H120.338Z" fill="#1E1E1E"/>
<path d="M237.055 81.2832L239.268 86.8654H242.206L240.033 81.2832H237.055Z" fill="#1E1E1E"/>
<path d="M120.338 48.0713L122.551 53.6535H125.489L123.316 48.0713H120.338Z" fill="white"/>
<path d="M173.747 108.953C175.147 108.953 176.282 107.82 176.282 106.423C176.282 105.026 175.147 103.893 173.747 103.893C172.346 103.893 171.211 105.026 171.211 106.423C171.211 107.82 172.346 108.953 173.747 108.953Z" fill="#FD7A17"/>
<g style="mix-blend-mode:multiply">
<g opacity="0.7">
<path opacity="0.7" d="M125.449 39.9189L184.29 48.3525L180.789 39.9189H125.449Z" fill="#C4E2E5"/>
</g>
</g>
<path d="M219.586 125.86H232.948L230.05 136.181C230.05 136.181 229.607 139.153 226.388 139.153C224.456 139.153 220.793 139.274 217.976 139.234C216.769 139.193 215.924 138.029 216.286 136.904L219.586 125.86Z" fill="black" fill-opacity="0.4"/>
<path d="M240.837 118.873C240.757 118.873 240.676 118.873 240.596 118.833C240.314 118.672 240.153 118.351 240.314 118.029C244.54 109.074 247.679 107.789 247.84 107.748C248.162 107.628 248.484 107.789 248.605 108.11C248.726 108.431 248.565 108.752 248.283 108.873C248.202 108.913 245.345 110.238 241.401 118.551C241.28 118.752 241.079 118.873 240.837 118.873Z" fill="#1E1E1E"/>
<path d="M186.344 111.564C186.263 111.564 186.183 111.564 186.143 111.524C185.821 111.403 185.66 111.042 185.78 110.761C189.483 100.922 192.26 97.7088 192.381 97.5883C192.622 97.3473 192.985 97.3072 193.226 97.5481C193.468 97.7891 193.508 98.1505 193.266 98.3915C193.226 98.4316 190.449 101.644 186.867 111.202C186.786 111.403 186.585 111.564 186.344 111.564Z" fill="#1E1E1E"/>
<path d="M251.904 149.474C251.904 149.474 256.774 150.197 262.046 149.073V152.486C262.046 152.486 255.366 153.53 251.904 153.049V149.474Z" fill="#1E1E1E"/>
<g opacity="0.7">
<g opacity="0.7">
<path opacity="0.7" d="M117.439 187.024C117.439 187.024 125.086 193.449 132.613 194.052C140.139 194.654 134.746 187.024 134.746 187.024H117.439Z" fill="black" fill-opacity="0.4"/>
</g>
</g>
<path d="M242.085 117.347L238.704 109.114C238.423 108.391 238.946 107.628 239.71 107.628H292.917C293.359 107.628 293.762 107.909 293.923 108.311L297.304 116.543C297.585 117.266 297.062 118.029 296.297 118.029H243.091C242.648 117.989 242.246 117.748 242.085 117.347Z" fill="#FD7A17"/>
<path d="M254.842 115.098L253.273 111.243C253.112 110.881 253.393 110.439 253.796 110.439H280.48C280.721 110.439 280.922 110.6 281.003 110.801L282.572 114.656C282.733 115.018 282.452 115.459 282.049 115.459H255.365C255.124 115.459 254.923 115.299 254.842 115.098Z" fill="black"/>
<path d="M289.051 107.748C289.373 110.319 287.481 112.367 284.825 112.367C282.169 112.367 279.593 110.359 279.07 107.748C278.506 105.058 280.358 102.769 283.215 102.769C286.073 102.769 288.689 105.058 289.051 107.748Z" fill="white"/>
<path d="M284.826 112.768C281.968 112.768 279.232 110.6 278.668 107.869C278.386 106.463 278.668 105.098 279.513 104.054C280.399 103.01 281.687 102.407 283.216 102.407C286.275 102.407 289.052 104.817 289.454 107.748C289.615 109.074 289.253 110.319 288.408 111.283C287.522 112.206 286.275 112.768 284.826 112.768ZM283.216 103.17C281.928 103.17 280.841 103.652 280.157 104.536C279.473 105.379 279.232 106.504 279.473 107.668C279.956 110.038 282.371 111.965 284.826 111.965C286.033 111.965 287.08 111.523 287.804 110.72C288.488 109.957 288.77 108.913 288.649 107.829C288.327 105.299 285.832 103.17 283.216 103.17Z" fill="#1E1E1E"/>
<path d="M284.384 109.034C284.223 109.034 284.062 108.953 284.021 108.752L282.492 104.656C282.412 104.455 282.532 104.214 282.733 104.134C282.935 104.054 283.176 104.174 283.257 104.375L284.786 108.471C284.867 108.672 284.746 108.913 284.545 108.993C284.504 109.034 284.424 109.034 284.384 109.034Z" fill="#FD7A17"/>
<path d="M284.867 110.439C284.706 110.439 284.545 110.359 284.505 110.198L284.425 110.038C284.344 109.837 284.425 109.596 284.666 109.515C284.867 109.435 285.109 109.515 285.189 109.756L285.27 109.917C285.35 110.118 285.27 110.359 285.028 110.439C284.988 110.439 284.948 110.439 284.867 110.439Z" fill="#FD7A17"/>
<path d="M244.983 115.098L243.413 111.243C243.252 110.881 243.534 110.439 243.936 110.439H250.537C250.778 110.439 250.98 110.6 251.06 110.801L252.63 114.656C252.791 115.018 252.509 115.459 252.107 115.459H245.506C245.305 115.459 245.063 115.299 244.983 115.098Z" fill="black"/>
</g>
<defs>
<linearGradient id="paint0_linear_400_852" x1="109.548" y1="89.8512" x2="130.41" y2="124.027" gradientUnits="userSpaceOnUse">
<stop stop-opacity="0.4"/>
<stop offset="0.998" stop-color="white" stop-opacity="0"/>
</linearGradient>
<linearGradient id="paint1_linear_400_852" x1="205.72" y1="68.6289" x2="202.613" y2="77.1671" gradientUnits="userSpaceOnUse">
<stop offset="0.00200123" stop-color="#FFCC99" stop-opacity="0"/>
<stop offset="0.2661" stop-color="#FFD19F" stop-opacity="0.2646"/>
<stop offset="0.6161" stop-color="#FFE0B0" stop-opacity="0.6153"/>
<stop offset="1" stop-color="#FFF7CA"/>
</linearGradient>
<linearGradient id="paint2_linear_400_852" x1="191.738" y1="64.1982" x2="201.517" y2="71.5143" gradientUnits="userSpaceOnUse">
<stop stop-color="#FFCC99" stop-opacity="0.3"/>
<stop offset="1" stop-color="#FFB759"/>
</linearGradient>
<clipPath id="clip0_400_852">
<rect width="300" height="197.947" fill="white"/>
</clipPath>
</defs>
</svg>
